<?xml version="1.0" encoding="UTF-8"?>
<svg width="260px" height="786px" viewBox="0 0 260 786" version="1.1" xmlns="http://www.w3.org/2000/svg" xmlns:xlink="http://www.w3.org/1999/xlink">
    <!-- Generator: Sketch 51.2 (57519) - http://www.bohemiancoding.com/sketch -->
    <title>menu / roxo copy 3</title>
    <desc>Created with Sketch.</desc>
    <defs>
        <rect id="path-1" x="0" y="0" width="260" height="786"></rect>
    </defs>
    <g id="menu-/-roxo-copy-3" stroke="none" stroke-width="1" fill="none" fill-rule="evenodd" opacity="0.2">
        <g id="Group-12-Copy-3" style="mix-blend-mode: overlay;">
            <mask id="mask-2" fill="white">
                <use xlink:href="#path-1"></use>
            </mask>
            <g id="Mask"></g>
            <g id="Group-5" opacity="0.3" style="mix-blend-mode: overlay;" mask="url(#mask-2)">
                <g transform="translate(-59.000000, -106.000000)">
                    <path d="M292.526316,97.4795322 L300.947368,89.5263158 C301.649123,88.8245614 302.818713,88.8245614 303.520468,89.5263158 L311.473684,97.9473684 C312.175439,98.6491228 312.175439,99.8187135 311.473684,100.520468 L303.052632,108.473684 C302.350877,109.175439 301.181287,109.175439 300.479532,108.473684 L292.526316,100.052632 C291.824561,99.3508772 291.824561,98.1812865 292.526316,97.4795322 Z" id="Shape" fill="#FFFFFF" fill-rule="nonzero"></path>
                    <g id="Group-6" stroke-width="1" fill="none" fill-rule="evenodd" transform="translate(18.000000, 67.000000)">
                        <path d="M261.526316,348.479532 L269.947368,340.526316 C270.649123,339.824561 271.818713,339.824561 272.520468,340.526316 L280.473684,348.947368 C281.175439,349.649123 281.175439,350.818713 280.473684,351.520468 L272.052632,359.473684 C271.350877,360.175439 270.181287,360.175439 269.479532,359.473684 L261.526316,351.052632 C260.824561,350.350877 260.824561,349.181287 261.526316,348.479532 Z" id="Shape-Copy-3" fill="#FFFFFF" fill-rule="nonzero"></path>
                        <path d="M73.3684211,115.935673 L79.2631579,110.368421 C79.754386,109.877193 80.5730994,109.877193 81.0643275,110.368421 L86.6315789,116.263158 C87.122807,116.754386 87.122807,117.573099 86.6315789,118.064327 L80.7368421,123.631579 C80.245614,124.122807 79.4269006,124.122807 78.9356725,123.631579 L73.3684211,117.736842 C72.877193,117.245614 72.877193,116.426901 73.3684211,115.935673 Z" id="Shape-Copy-6" fill="#121E48" fill-rule="nonzero"></path>
                        <path d="M216.368421,288.935673 L222.263158,283.368421 C222.754386,282.877193 223.573099,282.877193 224.064327,283.368421 L229.631579,289.263158 C230.122807,289.754386 230.122807,290.573099 229.631579,291.064327 L223.736842,296.631579 C223.245614,297.122807 222.426901,297.122807 221.935673,296.631579 L216.368421,290.736842 C215.877193,290.245614 215.877193,289.426901 216.368421,288.935673 Z" id="Shape-Copy-7" fill="#121E48" fill-rule="nonzero"></path>
                        <path d="M271.48104,237.078546 L288.680839,192.502541 C292.72785,181.696237 305.206136,176.293085 315.998167,180.345449 L360.515294,197.567996 C371.307325,201.62036 376.70334,214.11515 372.656328,224.921454 L355.456529,269.497459 C351.409518,280.303763 338.931232,285.706915 328.139201,281.654551 L283.622074,264.432004 C272.830044,260.041943 267.096777,247.88485 271.48104,237.078546 Z" id="Shape" stroke="#FFFFFF" stroke-width="3"></path>
                        <path d="M4.68329933,20.6876368 L54.5032531,0.553147716 C58.3752702,-0.995659138 62.7635563,0.811282191 64.3123632,4.68329933 L84.4468523,54.5032531 C85.9956591,58.3752702 84.1887178,62.7635563 80.3167007,64.3123632 L30.4967469,84.4468523 C26.6247298,85.9956591 22.2364437,84.1887178 20.6876368,80.3167007 L0.553147716,30.4967469 C-0.995659138,26.6247298 0.811282191,22.2364437 4.68329933,20.6876368 Z" id="Shape" stroke="#121E48" stroke-width="3"></path>
                        <path d="M256.889244,149.668273 L253.128141,131.526484 C252.464417,128.429105 254.455589,125.552968 257.331727,124.889244 L275.473516,121.128141 C278.570895,120.464417 281.447032,122.455589 282.110756,125.331727 L285.871859,143.473516 C286.535583,146.570895 284.544411,149.447032 281.668273,150.110756 L263.526484,153.871859 C260.429105,154.535583 257.552968,152.544411 256.889244,149.668273 Z" id="Shape" fill="#FFFFFF" fill-rule="nonzero"></path>
                        <path d="M34.8892439,199.668273 L31.1281412,181.526484 C30.4644172,178.429105 32.4555892,175.552968 35.3317265,174.889244 L53.4735161,171.128141 C56.5708948,170.464417 59.4470321,172.455589 60.1107561,175.331727 L63.8718588,193.473516 C64.5355828,196.570895 62.5444108,199.447032 59.6682735,200.110756 L41.5264839,203.871859 C38.4291052,204.535583 35.5529679,202.544411 34.8892439,199.668273 Z" id="Shape-Copy-4" fill="#FFFFFF" fill-rule="nonzero"></path>
                    </g>
                    <g id="Group-6-Copy" stroke-width="1" fill="none" fill-rule="evenodd" transform="translate(0.000000, 417.000000)">
                        <path d="M5.15568388,377.176255 L23.2902722,356.969143 C31.0622386,348.41998 44.2745815,347.642783 52.8237446,355.155684 L73.0308573,373.290272 C81.5800204,381.062239 82.357217,394.274582 74.8443161,402.823745 L56.7097278,423.030857 C48.9377614,431.58002 35.7254185,432.357217 27.1762554,424.844316 L6.96914271,406.709728 C-1.58002036,399.196827 -2.357217,385.984484 5.15568388,377.176255 Z" id="Shape" stroke="#121E48" stroke-width="3"></path>
                        <path d="M270.526316,348.479532 L278.947368,340.526316 C279.649123,339.824561 280.818713,339.824561 281.520468,340.526316 L289.473684,348.947368 C290.175439,349.649123 290.175439,350.818713 289.473684,351.520468 L281.052632,359.473684 C280.350877,360.175439 279.181287,360.175439 278.479532,359.473684 L270.526316,351.052632 C269.824561,350.350877 269.824561,349.181287 270.526316,348.479532 Z" id="Shape-Copy-3" fill="#FFFFFF" fill-rule="nonzero"></path>
                        <path d="M82.3684211,115.935673 L88.2631579,110.368421 C88.754386,109.877193 89.5730994,109.877193 90.0643275,110.368421 L95.6315789,116.263158 C96.122807,116.754386 96.122807,117.573099 95.6315789,118.064327 L89.7368421,123.631579 C89.245614,124.122807 88.4269006,124.122807 87.9356725,123.631579 L82.3684211,117.736842 C81.877193,117.245614 81.877193,116.426901 82.3684211,115.935673 Z" id="Shape-Copy-6" fill="#121E48" fill-rule="nonzero"></path>
                        <path d="M225.368421,288.935673 L231.263158,283.368421 C231.754386,282.877193 232.573099,282.877193 233.064327,283.368421 L238.631579,289.263158 C239.122807,289.754386 239.122807,290.573099 238.631579,291.064327 L232.736842,296.631579 C232.245614,297.122807 231.426901,297.122807 230.935673,296.631579 L225.368421,290.736842 C224.877193,290.245614 224.877193,289.426901 225.368421,288.935673 Z" id="Shape-Copy-7" fill="#121E48" fill-rule="nonzero"></path>
                        <path d="M13.6832993,20.6876368 L63.5032531,0.553147716 C67.3752702,-0.995659138 71.7635563,0.811282191 73.3123632,4.68329933 L93.4468523,54.5032531 C94.9956591,58.3752702 93.1887178,62.7635563 89.3167007,64.3123632 L39.4967469,84.4468523 C35.6247298,85.9956591 31.2364437,84.1887178 29.6876368,80.3167007 L9.55314772,30.4967469 C8.00434086,26.6247298 9.81128219,22.2364437 13.6832993,20.6876368 Z" id="Shape" stroke="#121E48" stroke-width="3"></path>
                        <path d="M265.889244,149.668273 L262.128141,131.526484 C261.464417,128.429105 263.455589,125.552968 266.331727,124.889244 L284.473516,121.128141 C287.570895,120.464417 290.447032,122.455589 291.110756,125.331727 L294.871859,143.473516 C295.535583,146.570895 293.544411,149.447032 290.668273,150.110756 L272.526484,153.871859 C269.429105,154.535583 266.552968,152.544411 265.889244,149.668273 Z" id="Shape" stroke="#121E48" stroke-width="3"></path>
                        <path d="M43.8892439,199.668273 L40.1281412,181.526484 C39.4644172,178.429105 41.4555892,175.552968 44.3317265,174.889244 L62.4735161,171.128141 C65.5708948,170.464417 68.4470321,172.455589 69.1107561,175.331727 L72.8718588,193.473516 C73.5355828,196.570895 71.5444108,199.447032 68.6682735,200.110756 L50.5264839,203.871859 C47.4291052,204.535583 44.5529679,202.544411 43.8892439,199.668273 Z" id="Shape-Copy-4" fill="#FFFFFF" fill-rule="nonzero"></path>
                    </g>
                </g>
            </g>
        </g>
    </g>
</svg>